<svg width="128" height="128" viewBox="0 0 128 128" fill="none" xmlns="http://www.w3.org/2000/svg">
<g clip-path="url(#clip0_1_2)">
<path d="M0 0H128V128H0V0Z" fill="black"/>
<path d="M22 22H106V34H22V22ZM22 34H34V46H22V34ZM94 34H106V46H94V34ZM22 46H34V58H22V46ZM46 46H82V58H46V46ZM94 46H106V58H94V46ZM22 58H34V70H22V58ZM46 58H82V70H46V58ZM94 58H106V70H94V58ZM22 70H34V82H22V70ZM46 70H82V82H46V70ZM94 70H106V82H94V70ZM22 82H34V94H22V82ZM94 82H106V94H94V82ZM22 94H106V106H22V94Z" fill="white"/>
</g>
<defs>
<clipPath id="clip0_1_2">
<rect width="128" height="128" fill="white"/>
</clipPath>
</defs>
</svg>
